<svg xmlns="http://www.w3.org/2000/svg" width="358" height="50" fill="none"><rect width="358" height="50" fill="#000" rx="2"/><path fill="#fff" d="M144.475 23c-.486-2.685-2.634-4.27-5.267-4.27-3.35 0-5.779 2.582-5.779 6.724 0 4.143 2.429 6.725 5.779 6.725 2.633 0 4.781-1.585 5.267-4.27h-1.585c-.384 1.815-1.944 2.787-3.682 2.787-2.378 0-4.245-1.84-4.245-5.242 0-3.4 1.867-5.24 4.245-5.24 1.738 0 3.298.97 3.682 2.786h1.585Zm6.345 9.205c2.66 0 4.449-2.02 4.449-5.063 0-3.068-1.789-5.088-4.449-5.088-2.659 0-4.448 2.02-4.448 5.088 0 3.043 1.789 5.063 4.448 5.063Zm0-1.356c-2.019 0-2.94-1.738-2.94-3.707 0-1.969.921-3.733 2.94-3.733 2.02 0 2.941 1.764 2.941 3.733s-.921 3.707-2.941 3.707Zm7.473-8.667h-1.739l3.119 4.909L156.554 32h1.739l2.352-3.81 2.352 3.81h1.739l-3.17-4.91 3.17-4.908h-1.739l-2.352 4.014-2.352-4.014Zm8.595 13.5h1.509v-5.19h.128c.332.536.971 1.713 2.863 1.713 2.455 0 4.168-1.97 4.168-5.088 0-3.094-1.713-5.063-4.193-5.063-1.918 0-2.506 1.176-2.838 1.688h-.179v-1.56h-1.458v13.5Zm1.483-8.591c0-2.199.972-3.682 2.813-3.682 1.918 0 2.864 1.61 2.864 3.682 0 2.096-.972 3.758-2.864 3.758-1.815 0-2.813-1.534-2.813-3.758Zm12.375 5.14c1.714 0 2.608-.921 2.915-1.56h.077V32h1.508v-6.469c0-3.12-2.377-3.477-3.63-3.477-1.483 0-3.171.511-3.938 2.301l1.432.511c.332-.715 1.119-1.482 2.557-1.482 1.387 0 2.071.735 2.071 1.994v.051c0 .729-.742.665-2.531.895-1.822.236-3.81.64-3.81 2.89 0 1.917 1.483 3.016 3.349 3.016Zm.231-1.356c-1.202 0-2.071-.537-2.071-1.585 0-1.15 1.048-1.509 2.224-1.662.639-.077 2.352-.256 2.608-.563v1.381c0 1.227-.972 2.429-2.761 2.429Zm8.531-8.693H188V32h1.508v-4.193h4.705V32h1.508v-9.818h-1.508V26.4h-4.705v-4.22Zm10.477 7.594v-7.594h-1.509V32h1.765l4.704-7.594V32h1.509v-9.818h-1.739l-4.73 7.594Zm7.896-6.188h3.247V32h1.508v-8.412h3.222v-1.406h-7.977v1.406Zm11.686 2.148v-3.554h-1.509V32h4.117c2.301 0 3.554-1.406 3.554-3.17 0-1.79-1.253-3.094-3.554-3.094h-2.608Zm0 1.406h2.608c1.195 0 2.045.729 2.045 1.764 0 .991-.85 1.688-2.045 1.688h-2.608v-3.452Z"/></svg>