<svg xmlns="http://www.w3.org/2000/svg" width="238" height="46" fill="none"><rect width="238" height="46" fill="#000" rx="2"/><path fill="#fff" d="M91.758 21c-.378-2.088-2.048-3.321-4.096-3.321-2.606 0-4.495 2.009-4.495 5.23 0 3.222 1.89 5.23 4.495 5.23 2.048 0 3.718-1.233 4.096-3.32h-1.233c-.298 1.411-1.511 2.167-2.863 2.167-1.85 0-3.302-1.432-3.302-4.077s1.452-4.077 3.302-4.077c1.352 0 2.565.756 2.863 2.168h1.233Zm4.936 7.16c2.068 0 3.46-1.572 3.46-3.938 0-2.387-1.392-3.958-3.46-3.958-2.069 0-3.46 1.571-3.46 3.958 0 2.366 1.392 3.937 3.46 3.937Zm0-1.055c-1.571 0-2.287-1.352-2.287-2.883 0-1.532.716-2.904 2.287-2.904 1.57 0 2.287 1.372 2.287 2.904 0 1.53-.716 2.883-2.287 2.883Zm5.812-6.741h-1.353l2.426 3.818L101.153 28h1.353l1.829-2.963 1.83 2.963h1.352l-2.466-3.818 2.466-3.818h-1.352l-1.83 3.122-1.829-3.122Zm6.685 10.5h1.173v-4.037h.1c.258.417.755 1.332 2.227 1.332 1.909 0 3.242-1.531 3.242-3.957 0-2.407-1.333-3.938-3.262-3.938-1.491 0-1.949.915-2.207 1.313h-.139v-1.213h-1.134v10.5Zm1.153-6.682c0-1.71.756-2.864 2.188-2.864 1.491 0 2.227 1.253 2.227 2.864 0 1.63-.755 2.923-2.227 2.923-1.412 0-2.188-1.193-2.188-2.923Zm9.625 3.997c1.333 0 2.029-.716 2.268-1.213h.059V28h1.173v-5.031c0-2.426-1.849-2.705-2.823-2.705-1.154 0-2.466.398-3.063 1.79l1.114.398c.258-.557.87-1.154 1.988-1.154 1.079 0 1.611.572 1.611 1.551v.04c0 .567-.577.517-1.969.696-1.416.184-2.963.497-2.963 2.247 0 1.492 1.154 2.347 2.605 2.347Zm.179-1.054c-.934 0-1.61-.418-1.61-1.233 0-.895.815-1.173 1.73-1.293.497-.06 1.829-.198 2.028-.437v1.074c0 .954-.756 1.889-2.148 1.889Zm6.636-6.761h-1.173V28h1.173v-3.261h3.659V28h1.174v-7.636h-1.174v3.28h-3.659v-3.28Zm8.149 5.906v-5.906h-1.174V28h1.373l3.659-5.906V28h1.173v-7.636h-1.352l-3.679 5.906Zm6.141-4.813h2.525V28h1.174v-6.543h2.505v-1.093h-6.204v1.093Zm9.089 1.67v-2.763h-1.173V28h3.202c1.789 0 2.764-1.094 2.764-2.466 0-1.392-.975-2.406-2.764-2.406h-2.029Zm0 1.095h2.029c.929 0 1.59.566 1.59 1.372 0 .77-.661 1.312-1.59 1.312h-2.029v-2.684Z"/></svg>